<svg display="block" width="32" height="32" viewBox="0 0 12 12" fill="none" xmlns="http://www.w3.org/2000/svg"><path d="M4.781.743c.51-.99 1.927-.99 2.438 0 .306.595.998.882 1.636.678 1.062-.34 2.064.662 1.724 1.724-.204.637.082 1.33.678 1.636.99.51.99 1.927 0 2.438a1.371 1.371 0 0 0-.678 1.636c.34 1.062-.662 2.064-1.724 1.724a1.371 1.371 0 0 0-1.636.678c-.51.99-1.927.99-2.438 0a1.371 1.371 0 0 0-1.636-.678c-1.062.34-2.064-.662-1.724-1.724A1.371 1.371 0 0 0 .743 7.22c-.99-.51-.99-1.927 0-2.438.595-.307.882-.999.678-1.636-.34-1.062.662-2.064 1.724-1.724A1.371 1.371 0 0 0 4.78.743Z" fill="#feda03"/><path fill-rule="evenodd" clip-rule="evenodd" d="M8.44 4.24a.52.52 0 0 1 .013.735l-3.047 3.16-1.859-1.928a.52.52 0 1 1 .748-.722l1.111 1.152 2.299-2.384a.52.52 0 0 1 .735-.013Z" fill="#000"/></svg>